<svg xmlns="http://www.w3.org/2000/svg" xmlns:xlink="http://www.w3.org/1999/xlink" viewBox="0 0 173.875 275.284"><defs><path id="a" d="M0 0h173.875v275.284H0z"/></defs><clipPath id="b"><use xlink:href="#a" overflow="visible"/></clipPath><path clip-path="url(#b)" fill="#fff" d="M67.312 157.134c-.514-.89-.514-2.346 0-3.235l23.018-39.91c.514-.89 1.352-.89 1.867 0l23.012 39.91c.513.89.513 2.344 0 3.234l-23.013 39.91c-.516.89-1.354.89-1.867 0l-23.018-39.91z"/><path clip-path="url(#b)" fill="#F15A22" d="M20.25 113.99c.512-.89.512-2.345 0-3.235L11.252 95.15c-.512-.89-1.352-.89-1.865 0l-9 15.605c-.516.89-.516 2.345 0 3.234l9 15.605c.513.89 1.353.89 1.865 0l8.998-15.606zM143.24 22.237c.514-.89.514-2.344 0-3.234L132.668.667c-.514-.89-1.354-.89-1.867 0l-10.57 18.336c-.517.89-.517 2.345 0 3.234l10.57 18.338c.515.89 1.355.89 1.868 0l10.572-18.338zM159.115 132.817c-.514-.89-.514-2.345 0-3.234l10.58-18.347c.516-.89.516-2.345 0-3.235l-24.602-42.663c-.516-.89-1.354-.89-1.865 0l-10.58 18.347c-.514.89-1.352.89-1.867 0L92.198 16.772c-.516-.89-1.354-.89-1.867 0L54.79 78.396c-.51.89-1.35.89-1.864 0l-16.793-29.12c-.512-.89-1.352-.89-1.866 0L17.47 78.395c-.51.89-.51 2.345 0 3.235l16.797 29.125c.514.89.514 2.345 0 3.234l-23.015 39.908c-.512.89-.512 2.345 0 3.235L31.97 193.06c.514.89 1.72 1.905 2.688 2.255l31.967 11.64c.965.35 1.338-.09.822-.98l-28.166-48.84c-.513-.892-.513-2.347 0-3.236l51.05-88.52c.514-.89 1.352-.89 1.867 0l51.043 88.518c.514.89.514 2.345 0 3.235l-28.166 48.84c-.514.89-.145 1.33.82.98l31.975-11.64c.964-.35 2.173-1.364 2.687-2.255l20.715-35.926c.514-.89.514-2.346 0-3.235l-12.157-21.08z"/><path clip-path="url(#b)" fill="#fff" d="M166.457 275.284c-.04-.01-.08-.02-.117-.033L8.76 217.893c-.04-.008-.08-.022-.114-.048l7.41-20.373c.046.02.083.023.126.038l157.578 57.356c.035.012.068.033.115.05l-7.418 20.37zM134.072 232.34l39.688-14.448c.034-.008.067-.025.114-.048l-7.418-20.372c-.04.018-.08.02-.117.036l-63.983 23.29 31.715 11.543zM48.436 240.423L8.76 254.863c-.04.013-.08.034-.113.045l7.41 20.376c.045-.01.082-.02.125-.033l63.97-23.277-31.716-11.55z"/></svg>